<svg width="956" height="188" fill="none" xmlns="http://www.w3.org/2000/svg"><path d="M751.854 94.878C751.904 47.588 786.652 0 855.06 0c66.622 0 101.311 48.119 100.529 93.688-.907 52.826-36.12 80.152-67.664 89.977l-3.594-15.751c-1.883-8.257.354-15.624 6.194-20.83 7.552-6.733 12.044-15.057 14.383-26.569 2.473-12.17 1.311-25.526-4.177-38.867L882.073 29.18h-18.711l14.953 59.934c1.369 5.97-3.166 11.664-9.291 11.664l-18.17-79.691h-17.009l16.366 98.346c-10.251.92-14.044-5.727-14.896-10.536l-10.436-74.276h-17.277s.106 40.015.106 67.343c0 40.165 21.469 52.122 36.296 55.688 8.386 2.018 13.987 8.539 15.511 17.696L861.619 188c-31.755.081-109.853-11.738-109.765-93.122zM0 47.956h44.15v109.023h25.036V47.956h44.32V29.179H0v18.777zm149.158-18.712h-24.359v127.735h24.359v-46.688c0-23.006 15.732-37.046 29.941-37.046 9.642 0 16.747 6.259 16.747 18.946v64.788h24.359v-72.57c0-20.637-13.702-30.617-29.941-30.617-16.747 0-34.34 11.164-41.106 31.802v-56.35z" fill="#00645A"/><path fill-rule="evenodd" clip-rule="evenodd" d="M232.092 105.554c0-25.881 16.577-51.763 50.071-51.763 27.066 0 41.444 16.409 41.444 47.196v4.736H252.56c2.707 16.071 15.055 28.757 35.862 28.757 12.518 0 25.881-4.567 36.877-13.363v23.851c-12.518 9.304-26.727 13.871-40.768 13.871-32.817 0-52.439-24.19-52.439-53.285zm66.818-11.672c0-17.085-6.936-25.543-19.961-25.543-15.563 0-24.697 11.841-26.558 25.543h46.519z" fill="#00645A"/><path d="M428.556 29.179h-90.838v127.8h25.205V98.365h57.175V79.589h-57.175V47.956h65.633V29.179z" fill="#00645A"/><path fill-rule="evenodd" clip-rule="evenodd" d="M430.835 106.569c0-26.22 18.777-52.778 54.977-52.778 35.523 0 53.961 26.05 53.961 52.271 0 26.388-18.776 52.777-54.976 52.777-35.354 0-53.962-26.219-53.962-52.27zm55.653 33.494c18.608 0 28.419-14.886 28.419-32.479 0-18.438-10.657-35.016-30.787-35.016-18.607 0-28.419 14.886-28.419 32.309 0 18.608 10.657 35.186 30.787 35.186z" fill="#00645A"/><path d="M574.159 55.484h-22.498v101.495h24.359V95.743c5.075-12.517 17.085-19.283 29.434-19.283 6.597 0 13.533 1.86 18.777 5.582V58.19c-4.06-2.537-9.304-4.06-14.548-4.06-15.224 0-30.11 9.642-35.524 32.648V55.484zM682.444 96.46l48.298-51.43h-27.62l-42.113 43.433-.013-59.284h-24.347v127.8h24.524l-.177-52.121s40.367-.991 40.367 52.121h26.4c0-51.425-45.319-60.52-45.319-60.52z" fill="#00645A"/></svg>