<svg
	xmlns:xlink="http://www.w3.org/1999/xlink"
	xmlns="http://www.w3.org/2000/svg"
	width="50" height="50" fill="#00665c" 
	viewBox="0 0 24 24"
	aria-hidden="true"
	focusable="false"
	class="css-995b7x e1g5xyts5"
>
	<g fill-rule="evenodd">
		<path
			d="M17.25.75a.75.75 0 0 1 .75.75V3h3.75a.75.75 0 0 1 .75.75v18a.75.75 0 0 1-.75.75H2.25a.75.75 0 0 1-.75-.75v-18A.75.75 0 0 1 2.25 3H6V1.5a.75.75 0 0 1 1.5 0V3h9V1.5a.75.75 0 0 1 .75-.75ZM21 9H3v12h18V9ZM6 4.5H3v3h18v-3h-3v.75a.75.75 0 0 1-1.5 0V4.5h-9v.75a.75.75 0 0 1-1.5 0V4.5Z"
		></path>
		<path
			d="M10.313 18.813a.753.753 0 0 1-.531-.22l-3.188-3.187a.752.752 0 0 1 0-1.062.752.752 0 0 1 1.062 0l2.657 2.658 6.031-6.033a.752.752 0 0 1 1.062 0 .752.752 0 0 1 0 1.062l-6.562 6.563a.753.753 0 0 1-.531.219"
		></path>
	</g>
</svg>
