<svg
	xmlns:xlink="http://www.w3.org/1999/xlink"
	xmlns="http://www.w3.org/2000/svg"
	width="50" height="50" fill="#00665c" 
	viewBox="0 0 24 24"
	aria-hidden="true"
	focusable="false"
	class="css-995b7x e1g5xyts4"
>
	<g fill-rule="evenodd">
		<path
			d="M12 3c-4.963 0-9 4.037-9 9s4.037 9 9 9 9-4.037 9-9-4.037-9-9-9m0 19.5C6.21 22.5 1.5 17.79 1.5 12S6.21 1.5 12 1.5 22.5 6.21 22.5 12 17.79 22.5 12 22.5"
		></path>
		<path
			d="M14.5 14a1.5 1.5 0 1 1 0 3 1.5 1.5 0 0 1 0-3Zm2.273-6.773a.75.75 0 0 1 0 1.06l-8.485 8.486a.75.75 0 0 1-1.061-1.06l8.485-8.486a.75.75 0 0 1 1.061 0ZM9.5 7a1.5 1.5 0 1 1 0 3 1.5 1.5 0 0 1 0-3Z"
		></path>
	</g>
</svg>
