<svg xmlns="http://www.w3.org/2000/svg" xmlns:xlink= "http://www.w3.org/1999/xlink" width="50" height="50" fill="#00665c" viewBox="0 0 24 24" aria-hidden="true" focusable="false" class="css-995b7x e1g5xyts2"><g fill-rule="evenodd"><path d="M12 1.5c5.799 0 10.5 4.701 10.5 10.5S17.799 22.5 12 22.5 1.5 17.799 1.5 12 6.201 1.5 12 1.5Zm0 1.313a9.187 9.187 0 1 0 0 18.374 9.187 9.187 0 0 0 0-18.375Z"></path><path d="M9.307 17.074c-.586.417-1.349-.172-1.115-.847l1.107-3.199-2.507-1.91c-.559-.426-.263-1.329.442-1.329h3.128l.938-3.02c.215-.692 1.185-.692 1.4 0l.938 3.02h3.128c.693 0 .997.878.46 1.315l-2.367 1.924.96 3.27c.197.671-.56 1.222-1.13.81l-2.693-1.947-2.69 1.913Z"></path></g></svg>