<svg xmlns="http://www.w3.org/2000/svg" xmlns:xlink="http://www.w3.org/1999/xlink" width="26" height="50" fill="#00665c"  viewBox="0 0 24 24" aria-hidden="true" focusable="false" font-size="l" color="brandPrimary.500" mx="xxs" class="css-1bjxc9q e1smhukn0"><path fill-rule="evenodd" d="M12 2.908 9.903 9.656h-7s-.005.017.003.024l5.591 4.261-2.444 7.063c-.005.015-.003.017-.006.02L12 16.788l5.953 4.306c-.003-.003-.001-.004-.005-.019l-2.096-7.135 5.242-4.261c.008-.007.002-.024.004-.024h-7.001L12 2.908ZM6.858 22.164c-1.118.795-2.575-.328-2.128-1.618l2.113-6.106-4.785-3.647c-1.068-.814-.503-2.537.844-2.537h5.97l1.792-5.767c.41-1.319 2.262-1.319 2.672 0l1.792 5.767h5.97c1.324 0 1.903 1.677.879 2.51l-4.52 3.674 1.834 6.242c.376 1.282-1.07 2.334-2.158 1.547l-5.14-3.718-5.135 3.653Z"></path></svg>