<svg width="12" height="12" fill="hsl(0, 0%, 100%)" d="M159.34 27C65.3512 27 17.5383 93.0583 17.5383 158.703C17.5383 292.326 167.731 287.984 167.731 287.984L165.621 270.368C164.197 258.482 155.672 248.645 144.15 245.845C123.777 240.894 94.2803 224.296 94.2803 168.541C94.2803 130.606 94.1345 75.0594 94.1345 75.0594H117.872L132.212 178.164C133.383 184.841 138.594 194.067 152.678 192.79L130.192 56.2735H153.561L178.526 166.895C186.941 166.895 193.173 158.992 191.292 150.705L170.746 67.4861H196.454L222.088 140.339C229.63 158.858 231.226 177.399 227.828 194.292C224.614 210.272 217.204 223.517 206.828 232.862C198.804 240.089 195.529 251.288 198.317 261.776L203.671 281.914C266.049 263.794 297.462 210.151 297.462 157.052C297.464 92.2329 250.876 27 159.34 27Z" viewBox="0 0 315 315" aria-hidden="true" focusable="false" data-testid="tfpay-icon" style="bottom: 0.0625rem; margin-right: 0.25em; position: relative;"><path fill="hsl(0, 0%, 100%)" d="M159.34 27C65.3512 27 17.5383 93.0583 17.5383 158.703C17.5383 292.326 167.731 287.984 167.731 287.984L165.621 270.368C164.197 258.482 155.672 248.645 144.15 245.845C123.777 240.894 94.2803 224.296 94.2803 168.541C94.2803 130.606 94.1345 75.0594 94.1345 75.0594H117.872L132.212 178.164C133.383 184.841 138.594 194.067 152.678 192.79L130.192 56.2735H153.561L178.526 166.895C186.941 166.895 193.173 158.992 191.292 150.705L170.746 67.4861H196.454L222.088 140.339C229.63 158.858 231.226 177.399 227.828 194.292C224.614 210.272 217.204 223.517 206.828 232.862C198.804 240.089 195.529 251.288 198.317 261.776L203.671 281.914C266.049 263.794 297.462 210.151 297.462 157.052C297.464 92.2329 250.876 27 159.34 27Z"></path></svg>
